# Modelo 3D: Linterna (Estilo Voxel/Bloque)
# Generado para Luz Spot (Foco)

# Base del mango (Z = 0)
v  0.2  0.2 0.0
v -0.2  0.2 0.0
v -0.2 -0.2 0.0
v  0.2 -0.2 0.0

# Fin del mango (Z = 1.5)
v  0.2  0.2 1.5
v -0.2  0.2 1.5
v -0.2 -0.2 1.5
v  0.2 -0.2 1.5

# Inicio del cabezal ancho (Z = 1.5)
v  0.4  0.4 1.5
v -0.4  0.4 1.5
v -0.4 -0.4 1.5
v  0.4 -0.4 1.5

# Fin del cabezal (Z = 2.0)
v  0.4  0.4 2.0
v -0.4  0.4 2.0
v -0.4 -0.4 2.0
v  0.4 -0.4 2.0

# Mango
f 4 3 2 1
f 1 2 6 5
f 2 3 7 6
f 3 4 8 7
f 4 1 5 8

# Transición (Mango al cabezal)
f 5 6 10 9
f 6 7 11 10
f 7 8 12 11
f 8 5 9 12

# Cabezal (Lente)
f 9 10 14 13
f 10 11 15 14
f 11 12 16 15
f 12 9 13 16
f 13 14 15 16